<?xml version="1.0" encoding="utf-8"?>
<!-- Generator: Adobe Illustrator 20.1.0, SVG Export Plug-In . SVG Version: 6.00 Build 0)  -->
<svg version="1.1" id="Layer_1" xmlns="http://www.w3.org/2000/svg" xmlns:xlink="http://www.w3.org/1999/xlink" x="0px" y="0px"
	 viewBox="0 0 469.7 58" style="enable-background:new 0 0 469.7 58;" xml:space="preserve">
<style type="text/css">
	.st0{fill:#FFFFFF;}
	.st1{clip-path:url(#SVGID_2_);}
</style>
<title>Sports monitoring_logo</title>
<path class="st0" d="M93.6,29.8c4.4,0.9,9.1,2.7,8,8.2c-0.9,4.5-5.4,6.8-10.3,6.8c-3.4,0-6.8-1.3-8.5-4.5l1-0.4
	c1.4,2.6,4.4,3.9,7.7,3.9c3.8,0,7.9-1.8,9-5.9c1-4.9-3.1-6.3-7.3-7.2s-8.8-2.4-7.8-7.7c0.8-4.6,5.3-6.7,9.8-6.7c3.6,0,6.7,1.3,8,4.3
	l-1,0.4c-1.1-2.5-4.1-3.7-7.2-3.7c-3.9,0-7.8,1.6-8.7,5.8S89.3,28.9,93.6,29.8z"/>
<path class="st0" d="M106.3,44.4l3.9-27.7h9.8c5.6,0.1,7.8,4.3,7.3,8.4c-0.7,4.8-4.8,8.3-9.6,8.3h-8.8l-1.5,11H106.3z M117.8,32.4
	c4.2,0,7.9-3.1,8.5-7.3c0.5-3.6-1.7-7.5-6.4-7.5H111l-2,14.8H117.8z"/>
<path class="st0" d="M132,24.1c0.7-5.2,6-7.8,11.4-7.8c5.2,0,9.9,2.6,9.2,7.8l-1.8,12.8c-0.7,5.2-6.3,7.8-11.4,7.8s-9.9-2.7-9.2-7.8
	L132,24.1z M131.2,36.9c-0.6,4.6,3.6,6.9,8.3,6.9s9.7-2.3,10.3-6.9l1.8-12.8c0.7-4.9-3.8-6.9-8.4-6.9s-9.5,2.1-10.2,6.9L131.2,36.9z
	"/>
<path class="st0" d="M173,44.4L165.4,32h-6.3l-1.7,12.4h-0.9l3.9-27.7h9.8c4.8,0,8.2,1.9,7.5,7.5C176.8,30,173,32,168,32h-1.5
	l7.6,12.4H173z M168.1,31.2c5,0,7.9-2,8.6-6.9s-2.3-6.7-6.7-6.6h-8.9l-1.9,13.6h8.9V31.2z"/>
<path class="st0" d="M199.8,17.7h-9.2l-3.7,26.7h-1l3.7-26.7h-9.2l0.2-1H200L199.8,17.7z"/>
<path class="st0" d="M217.7,16.7h7l3.9,13.5l7.8-13.5h7l-3.9,27.7h-7l1.1-8l1.2-5.6h-0.2l-5,9.5h-4.8l-2.4-9.5h-0.2l-0.4,5.6l-1.1,8
	h-7L217.7,16.7z"/>
<path class="st0" d="M245.9,25.8c0.9-6.4,7-9.5,12.8-9.5s11.1,3.2,10.2,9.5l-1.4,9.5c-0.9,6.3-6.8,9.5-12.8,9.5
	c-5.7,0-11-3.2-10.1-9.5L245.9,25.8z M251.5,35.3c-0.3,2,1.8,3,3.9,3c2.3,0,4.7-1,5-3.2l1.4-9.3c0.3-2.1-1.6-3.1-3.9-3.1
	s-4.7,1.1-5,3.1L251.5,35.3z"/>
<path class="st0" d="M273.7,16.7h6.6l5,11.8l1.6,5.6h0.2l-0.2-4.8l1.8-12.5h7l-3.9,27.7h-7.1L280,33.6l-1.6-5.5h-0.2l0.1,5.3
	l-1.5,11.1h-7L273.7,16.7z"/>
<path class="st0" d="M303.3,44.4h-7l3.9-27.7h7L303.3,44.4z"/>
<path class="st0" d="M323.4,23.1l-2.9,21.3h-7.1l2.9-21.3h-7.5l0.9-6.4h22l-0.9,6.4L323.4,23.1z"/>
<path class="st0" d="M332.4,25.8c0.9-6.4,7-9.5,12.8-9.5s11.1,3.2,10.2,9.5l-1.4,9.5c-0.9,6.3-6.8,9.5-12.8,9.5
	c-5.7,0-11-3.2-10.1-9.5L332.4,25.8z M338,35.3c-0.3,2,1.8,3,3.9,3c2.3,0,4.7-1,5-3.2l1.4-9.3c0.3-2.1-1.6-3.1-3.9-3.1
	s-4.7,1.1-5,3.1L338,35.3z"/>
<path class="st0" d="M365.9,35.6h-1.3l-1.2,8.8h-7.1l3.9-27.7h11c5.7,0,9.8,3,9,9.5c-0.7,5.1-2.9,6.8-6.7,8.6l6.6,9.5h-8.7
	L365.9,35.6z M369.6,29.6c1.8,0,3.4-1.4,3.6-3.2c0.3-1.4-0.5-2.7-1.9-3.1c-0.3-0.1-0.5-0.1-0.8-0.1h-4.1l-0.9,6.3L369.6,29.6z"/>
<path class="st0" d="M388.5,44.4h-7l3.9-27.7h7L388.5,44.4z"/>
<path class="st0" d="M396.7,16.7h6.6l5,11.8l1.6,5.6h0.2l-0.1-4.8l1.8-12.5h7l-3.9,27.6h-7.1l-4.7-10.9l-1.6-5.5h-0.2l0.1,5.3
	l-1.5,11.1h-7L396.7,16.7z"/>
<path class="st0" d="M436,24.9c-0.5-1.5-1.9-2.5-3.5-2.4c-2,0-4,1.2-4.3,3.2l-1.3,9.5c-0.3,2.1,1.5,3.2,3.6,3.2s4.2-1.1,4.5-3.2
	l0.2-1.2h-4.4l0.8-5.7h11.1l-0.9,6.9c-0.9,6.4-6.7,9.6-12.3,9.6s-10.4-3.2-9.5-9.6l1.3-9.5c0.9-6.5,6.8-9.4,12.2-9.4
	c3.6,0,7.5,1.5,8.8,5.9L436,24.9z"/>
<g>
	<g>
		<defs>
			<circle id="SVGID_1_" cx="29" cy="29" r="27.6"/>
		</defs>
		<clipPath id="SVGID_2_">
			<use xlink:href="#SVGID_1_"  style="overflow:visible;"/>
		</clipPath>
		<g class="st1">
			<g>
				<path class="st0" d="M8.7,45.4c-3.9,0-7.9-2.2-12.2-6.8c-0.6-0.6-0.5-1.5,0.1-2c0.6-0.6,1.5-0.5,2,0.1C6.4,45,11.4,42.8,14.8,40
					c1.4-1.1,4.3-4.3,7.3-7.4c4.2-4.3,6.8-7,7.9-7.9c2.2-1.5,8.1-5.5,15.1,1.4c1.5,1.5,2.8,3.3,4.1,5c3.5,4.7,7.1,9.7,16.1,10.8
					c0.8,0.1,1.4,0.9,1.3,1.6c-0.1,0.8-0.9,1.4-1.6,1.3c-10-1.3-14.3-7-18-12c-1.3-1.7-2.4-3.3-3.8-4.6c-5.3-5.3-9.3-2.6-11.3-1.2
					c-1,0.7-4.4,4.3-7.5,7.5c-3.2,3.3-6.2,6.5-7.6,7.6C14.1,44.4,11.4,45.4,8.7,45.4z"/>
			</g>
			<g>
				<path class="st0" d="M-8,50.2c-0.1,0-0.3,0-0.4,0c-3.6-0.2-7-3.5-10.5-9.9c-0.1-0.2,0-0.4,0.2-0.5c0.2-0.1,0.4,0,0.5,0.2
					c3.3,6.2,6.7,9.4,9.9,9.6c3,0.2,6.1-2.1,9.5-7c1.5-2.2,4.9-8.4,8.2-14.5c3.5-6.4,6.9-12.5,8-13.9c1.3-1.5,3.8-4.7,7-4.4
					c2.6,0.2,5.1,2.5,7.6,6.9c1.5,2.7,2.8,5.8,4.2,9c4,9.3,8,18.8,18.1,21c0.2,0,0.3,0.2,0.3,0.4s-0.2,0.3-0.4,0.3
					C43.8,45.1,39.6,35.4,35.7,26c-1.4-3.2-2.7-6.3-4.2-9c-2.3-4.2-4.7-6.3-7-6.5c-2.6-0.2-4.7,2-6.5,4.2c-1.2,1.4-4.6,7.7-7.9,13.8
					S3.3,40.8,1.8,43C-1.7,47.9-4.9,50.2-8,50.2z"/>
			</g>
		</g>
	</g>
</g>
<g>
	<path class="st0" d="M29,57C13.6,57,1,44.4,1,29S13.6,1,29,1s28,12.6,28,28S44.4,57,29,57z M29,2.1C14.1,2.1,2.1,14.1,2.1,29
		s12,26.9,26.9,26.9s26.9-12,26.9-26.9S43.9,2.1,29,2.1z"/>
</g>
</svg>
